<svg width="20" height="20" viewBox="0 0 20 20" fill="none" xmlns="http://www.w3.org/2000/svg">
<path d="M8.86358 6.1363C8.57069 5.8434 8.09581 5.8434 7.80292 6.1363C7.51003 6.42919 7.51003 6.90406 7.80292 7.19696L8.86358 6.1363ZM11.6666 9.99996L12.1969 10.5303C12.3376 10.3896 12.4166 10.1989 12.4166 9.99996C12.4166 9.80105 12.3376 9.61028 12.1969 9.46963L11.6666 9.99996ZM7.80292 12.803C7.51003 13.0959 7.51003 13.5707 7.80292 13.8636C8.09581 14.1565 8.57069 14.1565 8.86358 13.8636L7.80292 12.803ZM7.80292 7.19696L11.1363 10.5303L12.1969 9.46963L8.86358 6.1363L7.80292 7.19696ZM11.1363 9.46963L7.80292 12.803L8.86358 13.8636L12.1969 10.5303L11.1363 9.46963Z" fill="#003459"/>
</svg>
