<svg width="20" height="20" viewBox="0 0 20 20" fill="none" xmlns="http://www.w3.org/2000/svg">
<path d="M8.86358 6.13633C8.57069 5.84343 8.09581 5.84343 7.80292 6.13633C7.51003 6.42922 7.51003 6.90409 7.80292 7.19699L8.86358 6.13633ZM11.6666 9.99999L12.1969 10.5303C12.3376 10.3897 12.4166 10.1989 12.4166 9.99999C12.4166 9.80108 12.3376 9.61031 12.1969 9.46966L11.6666 9.99999ZM7.80292 12.803C7.51003 13.0959 7.51003 13.5708 7.80292 13.8637C8.09581 14.1565 8.57069 14.1565 8.86358 13.8637L7.80292 12.803ZM7.80292 7.19699L11.1363 10.5303L12.1969 9.46966L8.86358 6.13633L7.80292 7.19699ZM11.1363 9.46966L7.80292 12.803L8.86358 13.8637L12.1969 10.5303L11.1363 9.46966Z" fill="#003459"/>
</svg>
