<svg width="266" height="36" viewBox="0 0 266 36" fill="none" xmlns="http://www.w3.org/2000/svg">
<path d="M1.2 13.8V25H2.688V21H5.264C6.304 21 7.152 20.648 7.84 19.96C8.528 19.272 8.88 18.408 8.88 17.4C8.88 16.376 8.528 15.528 7.84 14.84C7.152 14.152 6.304 13.8 5.264 13.8H1.2ZM2.688 19.608V15.192H5.264C6.496 15.192 7.408 16.12 7.408 17.4C7.408 18.024 7.2 18.552 6.8 18.984C6.4 19.4 5.888 19.608 5.264 19.608H2.688ZM11.7136 17H10.3216V25H11.7136V20.76C11.7136 19.88 11.9536 19.256 12.4496 18.856C12.9456 18.456 13.5216 18.28 14.2096 18.312V16.856C13.0096 16.856 12.1776 17.352 11.7136 18.344V17ZM22.3236 23.992C23.1396 23.176 23.5556 22.184 23.5556 21C23.5556 19.816 23.1396 18.824 22.3236 18.008C21.5076 17.192 20.4996 16.792 19.3316 16.792C18.1636 16.792 17.1556 17.192 16.3396 18.008C15.5236 18.824 15.1236 19.816 15.1236 21C15.1236 22.184 15.5236 23.176 16.3396 23.992C17.1556 24.808 18.1636 25.208 19.3316 25.208C20.4996 25.208 21.5076 24.808 22.3236 23.992ZM19.3316 23.848C18.5476 23.848 17.8756 23.576 17.3316 23.032C16.7876 22.488 16.5156 21.816 16.5156 21C16.5156 20.184 16.7876 19.512 17.3316 18.968C17.8756 18.424 18.5476 18.152 19.3316 18.152C20.1316 18.152 20.8036 18.424 21.3476 18.968C21.8916 19.512 22.1636 20.184 22.1636 21C22.1636 21.816 21.8916 22.488 21.3476 23.032C20.8036 23.576 20.1316 23.848 19.3316 23.848ZM30.7166 21.24C30.7166 23.032 29.7886 23.88 28.3966 23.88C27.1646 23.88 26.4126 23.128 26.4126 21.832V17H25.0206V21.912C25.0206 23.944 26.2526 25.208 28.1246 25.208C29.2926 25.208 30.1566 24.76 30.7166 23.848V25H32.1086V17H30.7166V21.24ZM40.8519 18.376C40.1639 17.32 39.1559 16.792 37.8279 16.792C36.7079 16.792 35.7479 17.208 34.9639 18.024C34.1799 18.84 33.7799 19.832 33.7799 21C33.7799 22.168 34.1799 23.176 34.9639 23.992C35.7479 24.808 36.7079 25.208 37.8279 25.208C39.1559 25.208 40.1639 24.68 40.8519 23.624V25H42.2439V13.8H40.8519V18.376ZM38.0039 23.864C37.2039 23.864 36.5319 23.592 35.9879 23.048C35.4439 22.488 35.1719 21.816 35.1719 21C35.1719 20.184 35.4439 19.512 35.9879 18.968C36.5319 18.408 37.2039 18.136 38.0039 18.136C38.8199 18.136 39.4919 18.408 40.0359 18.968C40.5799 19.512 40.8519 20.184 40.8519 21C40.8519 21.816 40.5799 22.488 40.0359 23.048C39.4919 23.592 38.8199 23.864 38.0039 23.864ZM52.7049 17H50.5769V14.76L49.1849 15.176V17H47.6009V18.344H49.1849V22.68C49.1849 24.664 50.2729 25.32 52.7049 25V23.752C51.2809 23.816 50.5769 23.912 50.5769 22.68V18.344H52.7049V17ZM61.1518 23.992C61.9678 23.176 62.3837 22.184 62.3837 21C62.3837 19.816 61.9678 18.824 61.1518 18.008C60.3358 17.192 59.3278 16.792 58.1598 16.792C56.9918 16.792 55.9838 17.192 55.1678 18.008C54.3518 18.824 53.9518 19.816 53.9518 21C53.9518 22.184 54.3518 23.176 55.1678 23.992C55.9838 24.808 56.9918 25.208 58.1598 25.208C59.3278 25.208 60.3358 24.808 61.1518 23.992ZM58.1598 23.848C57.3758 23.848 56.7038 23.576 56.1598 23.032C55.6158 22.488 55.3438 21.816 55.3438 21C55.3438 20.184 55.6158 19.512 56.1598 18.968C56.7038 18.424 57.3758 18.152 58.1598 18.152C58.9598 18.152 59.6318 18.424 60.1758 18.968C60.7198 19.512 60.9918 20.184 60.9918 21C60.9918 21.816 60.7198 22.488 60.1758 23.032C59.6318 23.576 58.9598 23.848 58.1598 23.848ZM72.4408 16.792C71.1128 16.792 70.1048 17.32 69.4168 18.376V13.8H68.0247V25H69.4168V23.624C70.1048 24.68 71.1128 25.208 72.4408 25.208C73.5608 25.208 74.5208 24.808 75.3048 23.992C76.0888 23.176 76.4888 22.168 76.4888 21C76.4888 19.832 76.0888 18.84 75.3048 18.024C74.5208 17.208 73.5608 16.792 72.4408 16.792ZM72.2648 23.864C71.4488 23.864 70.7768 23.592 70.2328 23.048C69.6888 22.488 69.4168 21.816 69.4168 21C69.4168 20.184 69.6888 19.512 70.2328 18.968C70.7768 18.408 71.4488 18.136 72.2648 18.136C73.0648 18.136 73.7368 18.408 74.2808 18.968C74.8248 19.512 75.0968 20.184 75.0968 21C75.0968 21.816 74.8248 22.488 74.2808 23.048C73.7368 23.592 73.0648 23.864 72.2648 23.864ZM85.8298 21.64C85.8618 21.432 85.8778 21.224 85.8778 21.016C85.8778 19.848 85.5098 18.856 84.7578 18.04C84.0218 17.208 83.0618 16.792 81.8938 16.792C80.6618 16.792 79.6538 17.192 78.8698 17.992C78.0858 18.792 77.7018 19.8 77.7018 21C77.7018 22.216 78.1018 23.224 78.8858 24.024C79.6858 24.808 80.7258 25.208 81.9898 25.208C83.5578 25.208 84.7258 24.6 85.5098 23.4L84.3258 22.728C83.8458 23.512 83.0778 23.896 82.0218 23.896C80.5018 23.896 79.3978 23.064 79.1258 21.64H85.8298ZM81.8938 18.104C83.1738 18.104 84.2298 18.904 84.4698 20.424H79.1258C79.3658 19.016 80.4058 18.104 81.8938 18.104ZM95.8939 16.792C94.5659 16.792 93.5579 17.32 92.8699 18.376V17H91.4779V28.2H92.8699V23.624C93.5579 24.68 94.5659 25.208 95.8939 25.208C97.0139 25.208 97.9739 24.808 98.7579 23.992C99.5419 23.176 99.9419 22.168 99.9419 21C99.9419 19.832 99.5419 18.84 98.7579 18.024C97.9739 17.208 97.0139 16.792 95.8939 16.792ZM95.7179 23.864C94.9019 23.864 94.2299 23.592 93.6859 23.048C93.1419 22.488 92.8699 21.816 92.8699 21C92.8699 20.184 93.1419 19.512 93.6859 18.968C94.2299 18.408 94.9019 18.136 95.7179 18.136C96.5179 18.136 97.1899 18.408 97.7339 18.968C98.2779 19.512 98.5499 20.184 98.5499 21C98.5499 21.816 98.2779 22.488 97.7339 23.048C97.1899 23.592 96.5179 23.864 95.7179 23.864ZM108.227 18.376C107.539 17.32 106.531 16.792 105.203 16.792C104.083 16.792 103.123 17.208 102.339 18.024C101.555 18.84 101.155 19.832 101.155 21C101.155 22.168 101.555 23.176 102.339 23.992C103.123 24.808 104.083 25.208 105.203 25.208C106.531 25.208 107.539 24.68 108.227 23.624V25H109.619V17H108.227V18.376ZM105.379 23.864C104.579 23.864 103.907 23.592 103.363 23.048C102.819 22.488 102.547 21.816 102.547 21C102.547 20.184 102.819 19.512 103.363 18.968C103.907 18.408 104.579 18.136 105.379 18.136C106.195 18.136 106.867 18.408 107.411 18.968C107.955 19.512 108.227 20.184 108.227 21C108.227 21.816 107.955 22.488 107.411 23.048C106.867 23.592 106.195 23.864 105.379 23.864ZM113.12 17H111.728V25H113.12V20.76C113.12 19.88 113.36 19.256 113.856 18.856C114.352 18.456 114.928 18.28 115.616 18.312V16.856C114.416 16.856 113.584 17.352 113.12 18.344V17ZM121.517 17H119.389V14.76L117.997 15.176V17H116.413V18.344H117.997V22.68C117.997 24.664 119.085 25.32 121.517 25V23.752C120.093 23.816 119.389 23.912 119.389 22.68V18.344H121.517V17ZM133.964 23.992C134.78 23.176 135.196 22.184 135.196 21C135.196 19.816 134.78 18.824 133.964 18.008C133.148 17.192 132.14 16.792 130.972 16.792C129.804 16.792 128.796 17.192 127.98 18.008C127.164 18.824 126.764 19.816 126.764 21C126.764 22.184 127.164 23.176 127.98 23.992C128.796 24.808 129.804 25.208 130.972 25.208C132.14 25.208 133.148 24.808 133.964 23.992ZM130.972 23.848C130.188 23.848 129.516 23.576 128.972 23.032C128.428 22.488 128.156 21.816 128.156 21C128.156 20.184 128.428 19.512 128.972 18.968C129.516 18.424 130.188 18.152 130.972 18.152C131.772 18.152 132.444 18.424 132.988 18.968C133.532 19.512 133.804 20.184 133.804 21C133.804 21.816 133.532 22.488 132.988 23.032C132.444 23.576 131.772 23.848 130.972 23.848ZM140.652 13.592C138.396 13.448 137.148 14.6 137.148 16.76V17H135.868V18.344H137.148V25H138.54V18.344H140.652V17H138.54V16.76C138.54 15.432 139.244 14.824 140.652 14.936V13.592Z" fill="black"/>
<path d="M150.56 8.2V25H153.872V19.48H156.824C158.432 19.48 159.8 18.928 160.904 17.848C162.008 16.768 162.56 15.424 162.56 13.84C162.56 12.256 162.008 10.912 160.904 9.832C159.8 8.752 158.432 8.2 156.824 8.2H150.56ZM153.872 16.384V11.296H156.824C158.24 11.296 159.272 12.376 159.272 13.84C159.272 15.28 158.24 16.384 156.824 16.384H153.872ZM176.236 20.272C176.308 19.816 176.356 19.408 176.356 19C176.356 17.2 175.78 15.712 174.628 14.488C173.5 13.264 172.036 12.664 170.284 12.664C168.436 12.664 166.9 13.264 165.724 14.488C164.548 15.688 163.948 17.2 163.948 19C163.948 20.824 164.548 22.336 165.748 23.536C166.948 24.736 168.532 25.336 170.524 25.336C172.828 25.336 174.58 24.472 175.756 22.768L173.26 21.328C172.66 22.12 171.748 22.528 170.572 22.528C168.724 22.528 167.596 21.784 167.188 20.272H176.236ZM167.14 17.872C167.5 16.336 168.628 15.448 170.284 15.448C171.7 15.448 172.9 16.24 173.26 17.872H167.14ZM185.03 13H182.318V9.64L179.222 10.576V13H177.134V15.976H179.222V20.968C179.222 24.256 180.782 25.48 185.03 25V22.192C183.254 22.288 182.318 22.264 182.318 20.968V15.976H185.03V13ZM199.28 25.336C201.08 25.336 202.544 24.88 203.672 23.968C204.8 23.056 205.376 21.832 205.376 20.272C205.376 19.312 205.112 18.472 204.752 17.896C204.44 17.32 203.672 16.72 203.168 16.408C202.928 16.24 202.568 16.072 202.112 15.904C201.656 15.712 201.296 15.568 201.032 15.496L199.88 15.112C198.632 14.728 197.792 14.368 197.336 14.056C196.904 13.72 196.688 13.288 196.688 12.76C196.688 11.776 197.528 11.08 198.896 11.08C200.36 11.08 201.44 11.8 202.112 13.24L204.896 11.632C203.744 9.256 201.608 7.864 198.896 7.864C197.384 7.864 196.064 8.32 194.984 9.232C193.904 10.12 193.376 11.344 193.376 12.856C193.376 14.392 193.928 15.544 194.96 16.312C196.016 17.056 196.928 17.416 198.44 17.872C199.808 18.256 200.744 18.616 201.272 18.952C201.8 19.264 202.064 19.72 202.064 20.32C202.064 21.352 201.224 22.096 199.376 22.096C197.456 22.096 196.16 21.232 195.512 19.528L192.68 21.184C193.616 23.752 195.944 25.336 199.28 25.336ZM219.057 20.272C219.129 19.816 219.177 19.408 219.177 19C219.177 17.2 218.601 15.712 217.449 14.488C216.321 13.264 214.857 12.664 213.105 12.664C211.257 12.664 209.721 13.264 208.545 14.488C207.369 15.688 206.769 17.2 206.769 19C206.769 20.824 207.369 22.336 208.569 23.536C209.769 24.736 211.353 25.336 213.345 25.336C215.649 25.336 217.401 24.472 218.577 22.768L216.081 21.328C215.481 22.12 214.569 22.528 213.393 22.528C211.545 22.528 210.417 21.784 210.009 20.272H219.057ZM209.961 17.872C210.321 16.336 211.449 15.448 213.105 15.448C214.521 15.448 215.721 16.24 216.081 17.872H209.961ZM224.434 25V7.48H221.338V25H224.434ZM230.364 25V7.48H227.268V25H230.364ZM244.861 20.272C244.933 19.816 244.981 19.408 244.981 19C244.981 17.2 244.405 15.712 243.253 14.488C242.125 13.264 240.661 12.664 238.909 12.664C237.061 12.664 235.525 13.264 234.349 14.488C233.173 15.688 232.573 17.2 232.573 19C232.573 20.824 233.173 22.336 234.373 23.536C235.573 24.736 237.157 25.336 239.149 25.336C241.453 25.336 243.205 24.472 244.381 22.768L241.885 21.328C241.285 22.12 240.373 22.528 239.197 22.528C237.349 22.528 236.221 21.784 235.813 20.272H244.861ZM235.765 17.872C236.125 16.336 237.253 15.448 238.909 15.448C240.325 15.448 241.525 16.24 241.885 17.872H235.765ZM250.239 13H247.143V25H250.239V19.264C250.239 18.112 250.599 17.296 251.343 16.792C252.087 16.288 252.951 16.096 253.887 16.216V12.76C252.255 12.76 250.815 13.528 250.239 15.064V13ZM258.178 16.408C258.178 15.808 258.778 15.424 259.57 15.424C260.458 15.424 261.106 15.832 261.49 16.648L264.13 15.208C263.194 13.576 261.514 12.664 259.57 12.664C258.274 12.664 257.194 13 256.306 13.696C255.442 14.368 255.01 15.304 255.01 16.48C255.01 18.976 257.242 19.72 259.018 20.176C260.242 20.488 261.202 20.848 261.202 21.496C261.202 22.192 260.65 22.528 259.546 22.528C258.322 22.528 257.554 22 257.194 20.968L254.506 22.48C255.394 24.376 257.074 25.336 259.546 25.336C260.914 25.336 262.066 25 262.978 24.352C263.914 23.68 264.37 22.72 264.37 21.496C264.394 18.928 262.114 18.088 260.362 17.728C259.138 17.416 258.178 17.056 258.178 16.408Z" fill="#003459"/>
</svg>
