<svg width="20" height="20" viewBox="0 0 20 20" fill="none" xmlns="http://www.w3.org/2000/svg">
<path d="M8.86358 6.13636C8.57069 5.84346 8.09581 5.84346 7.80292 6.13636C7.51003 6.42925 7.51003 6.90412 7.80292 7.19702L8.86358 6.13636ZM11.6666 10L12.1969 10.5304C12.3376 10.3897 12.4166 10.1989 12.4166 10C12.4166 9.80111 12.3376 9.61034 12.1969 9.46969L11.6666 10ZM7.80292 12.803C7.51003 13.0959 7.51003 13.5708 7.80292 13.8637C8.09581 14.1566 8.57069 14.1566 8.86358 13.8637L7.80292 12.803ZM7.80292 7.19702L11.1363 10.5304L12.1969 9.46969L8.86358 6.13636L7.80292 7.19702ZM11.1363 9.46969L7.80292 12.803L8.86358 13.8637L12.1969 10.5304L11.1363 9.46969Z" fill="#003459"/>
</svg>
